<svg  viewBox="0 0 19 18" fill="none" xmlns="http://www.w3.org/2000/svg">
<path d="M7.70711 0.292893C7.31658 -0.0976311 6.68342 -0.0976311 6.29289 0.292893L0.292893 6.29289C-0.097631 6.68342 -0.097631 7.31658 0.292893 7.70711C0.683419 8.09763 1.31658 8.09763 1.70711 7.70711L6 3.41421V13C6 14.3261 6.52678 15.5979 7.46447 16.5355C8.40215 17.4732 9.67392 18 11 18H18C18.5523 18 19 17.5523 19 17C19 16.4477 18.5523 16 18 16H11C10.2044 16 9.44129 15.6839 8.87868 15.1213C8.31607 14.5587 8 13.7956 8 13V3.41421L12.2929 7.70711C12.6834 8.09763 13.3166 8.09763 13.7071 7.70711C14.0976 7.31658 14.0976 6.68342 13.7071 6.29289L7.70711 0.292893Z" fill="#A8DADC"/>
</svg>
