<svg  viewBox="0 0 22 19" fill="none" xmlns="http://www.w3.org/2000/svg">
<path fill-rule="evenodd" clip-rule="evenodd" d="M8.50238 0C5.95497 0 3.88988 2.11098 3.88988 4.715C3.88988 7.31902 5.95497 9.43 8.50238 9.43C11.0498 9.43 13.1149 7.31902 13.1149 4.715C13.1149 2.11098 11.0498 0 8.50238 0ZM5.73488 4.715C5.73488 3.15259 6.97394 1.886 8.50238 1.886C10.0308 1.886 11.2699 3.15259 11.2699 4.715C11.2699 6.27741 10.0308 7.544 8.50238 7.544C6.97394 7.544 5.73488 6.27741 5.73488 4.715Z" fill="#F1FAEE"/>
<path d="M5.27363 11.316C4.05032 11.316 2.87711 11.8128 2.0121 12.697C1.14709 13.5812 0.661133 14.7805 0.661133 16.031V17.917C0.661133 18.4378 1.07415 18.86 1.58363 18.86C2.09312 18.86 2.50613 18.4378 2.50613 17.917V16.031C2.50613 15.2807 2.79771 14.5611 3.31671 14.0306C3.83572 13.5001 4.53965 13.202 5.27363 13.202H11.7311C12.4651 13.202 13.169 13.5001 13.6881 14.0306C14.2071 14.5611 14.4986 15.2807 14.4986 16.031V17.917C14.4986 18.4378 14.9116 18.86 15.4211 18.86C15.9306 18.86 16.3436 18.4378 16.3436 17.917V16.031C16.3436 14.7805 15.8577 13.5812 14.9927 12.697C14.1277 11.8128 12.9544 11.316 11.7311 11.316H5.27363Z" fill="#F1FAEE"/>
<path d="M18.8173 0.536861C18.6803 0.274171 18.3197 0.274171 18.1827 0.536861L17.319 2.19321C17.267 2.2929 17.175 2.36287 17.0683 2.38377L15.2952 2.73104C15.014 2.78612 14.9026 3.14485 15.0991 3.36227L16.3384 4.73323C16.413 4.81574 16.4481 4.92895 16.4342 5.04156L16.202 6.91253C16.1652 7.20926 16.457 7.43097 16.7154 7.30266L18.345 6.4936C18.4431 6.44491 18.5569 6.44491 18.655 6.4936L20.2846 7.30266C20.543 7.43097 20.8348 7.20926 20.798 6.91253L20.5658 5.04156C20.5519 4.92895 20.587 4.81574 20.6616 4.73323L21.9009 3.36227C22.0974 3.14485 21.986 2.78612 21.7048 2.73104L19.9317 2.38377C19.825 2.36287 19.733 2.2929 19.681 2.19321L18.8173 0.536861Z" fill="#F1FAEE"/>
</svg>
