<svg  viewBox="0 0 1414 778" fill="none" xmlns="http://www.w3.org/2000/svg">
<path opacity="0.8" d="M1038 703C1038 689.193 1049.19 678 1063 678H1414V753C1414 766.807 1402.81 778 1389 778H1063C1049.19 778 1038 766.807 1038 753V703Z" fill="#457B9D"/>
<path opacity="0.8" d="M776 503C776 489.193 787.193 478 801 478H1414V553C1414 566.807 1402.81 578 1389 578H801C787.193 578 776 566.807 776 553V503Z" fill="#457B9D"/>
<path opacity="0.8" d="M1159 343C1159 329.193 1170.19 318 1184 318H1414V353C1414 366.807 1402.81 378 1389 378H1184C1170.19 378 1159 366.807 1159 353V343Z" fill="#457B9D"/>
<path opacity="0.8" d="M776 219C776 205.193 787.193 194 801 194H1414V269C1414 282.807 1402.81 294 1389 294H801C787.193 294 776 282.807 776 269V219Z" fill="#457B9D"/>
<path opacity="0.8" d="M376 599C376 585.193 364.807 574 351 574H0V649C0 662.807 11.1929 674 25 674H351C364.807 674 376 662.807 376 649V599Z" fill="#457B9D"/>
<path opacity="0.8" d="M465 399C465 385.193 453.807 374 440 374H0V449C0 462.807 11.1929 474 25 474H440C453.807 474 465 462.807 465 449V399Z" fill="#457B9D"/>
<path opacity="0.8" d="M376 110C376 96.1929 364.807 85 351 85H0V160C0 173.807 11.1929 185 25 185H351C364.807 185 376 173.807 376 160V110Z" fill="#457B9D"/>
<path opacity="0.8" d="M330 25C330 11.1929 318.807 0 305 0H0V39C0 52.8071 11.1929 64 25 64H305C318.807 64 330 52.8071 330 39V25Z" fill="#457B9D"/>
</svg>
