<svg viewBox="0 0 26 26" fill="none" xmlns="http://www.w3.org/2000/svg">
<path fill-rule="evenodd" clip-rule="evenodd" d="M20.9266 0.346147C20.465 -0.115382 19.7168 -0.115382 19.2552 0.346147L7.43706 12.1643C7.21542 12.386 7.09091 12.6866 7.09091 13V17.7273C7.09091 18.38 7.62003 18.9091 8.27273 18.9091H13C13.3134 18.9091 13.614 18.7846 13.8357 18.5629L25.6539 6.74476C26.1154 6.28323 26.1154 5.53495 25.6539 5.07342L20.9266 0.346147ZM9.45455 16.5455V13.4895L20.0909 2.85316L23.1468 5.90909L12.5105 16.5455H9.45455Z" fill="#457B9D"/>
<path d="M2.70978 5.07342C2.93142 4.85179 3.23202 4.72727 3.54545 4.72727H9.85636C10.5091 4.72727 11.0382 4.19815 11.0382 3.54545C11.0382 2.89275 10.5091 2.36364 9.85636 2.36364H3.54545C2.60514 2.36364 1.70334 2.73717 1.03844 3.40208C0.373538 4.06698 0 4.96878 0 5.90909V22.4545C0 23.3949 0.373538 24.2967 1.03844 24.9616C1.70334 25.6265 2.60514 26 3.54545 26H20.0909C21.0312 26 21.933 25.6265 22.5979 24.9616C23.2628 24.2967 23.6364 23.3949 23.6364 22.4545V16.1436C23.6364 15.4909 23.1072 14.9618 22.4545 14.9618C21.8018 14.9618 21.2727 15.4909 21.2727 16.1436V22.4545C21.2727 22.768 21.1482 23.0686 20.9266 23.2902C20.7049 23.5119 20.4043 23.6364 20.0909 23.6364H3.54545C3.23202 23.6364 2.93142 23.5119 2.70978 23.2902C2.48815 23.0686 2.36364 22.768 2.36364 22.4545V5.90909C2.36364 5.59565 2.48815 5.29505 2.70978 5.07342Z" fill="#457B9D"/>
</svg>
