<svg viewBox="0 0 39 39" fill="none" xmlns="http://www.w3.org/2000/svg">
<path fill-rule="evenodd" clip-rule="evenodd" d="M33.15 3.89999C33.6672 3.89999 34.1632 4.10544 34.5289 4.47113C34.8946 4.83683 35.1 5.33282 35.1 5.84999V32.3422L30.6289 27.8711C30.2632 27.5054 29.7672 27.3 29.25 27.3H5.85C5.33283 27.3 4.83684 27.0945 4.47115 26.7288C4.10545 26.3631 3.9 25.8671 3.9 25.35V5.84999C3.9 5.33282 4.10545 4.83683 4.47115 4.47113C4.83684 4.10544 5.33283 3.89999 5.85 3.89999H33.15ZM37.2866 1.71342C36.1895 0.616336 34.7015 0 33.15 0H5.85C4.29848 0 2.81052 0.616337 1.71343 1.71342C0.616341 2.81051 0 4.29848 0 5.84999V25.35C0 26.9015 0.616341 28.3894 1.71343 29.4865C2.81051 30.5836 4.29848 31.2 5.85 31.2H28.4423L35.6711 38.4288C36.2288 38.9865 37.0676 39.1533 37.7962 38.8515C38.5249 38.5497 39 37.8386 39 37.0499V5.84999C39 4.29848 38.3837 2.81051 37.2866 1.71342Z" fill="#1D3557"/>
</svg>
