<svg  viewBox="0 0 258 252" fill="none" xmlns="http://www.w3.org/2000/svg">
<path fill-rule="evenodd" clip-rule="evenodd" d="M104.36 0C70.4559 0 42.9716 28.0951 42.9716 62.7522C42.9716 97.4092 70.4559 125.504 104.36 125.504C138.263 125.504 165.748 97.4092 165.748 62.7522C165.748 28.0951 138.263 0 104.36 0ZM67.5268 62.7522C67.5268 41.9579 84.0174 25.1009 104.36 25.1009C124.702 25.1009 141.192 41.9579 141.192 62.7522C141.192 83.5464 124.702 100.403 104.36 100.403C84.0174 100.403 67.5268 83.5464 67.5268 62.7522Z" fill="#F1FAEE"/>
<path d="M61.388 150.605C45.1069 150.605 29.4926 157.217 17.9801 168.985C6.46764 180.753 0 196.714 0 213.357V238.458C0 245.39 5.49686 251.009 12.2776 251.009C19.0583 251.009 24.5552 245.39 24.5552 238.458V213.357C24.5552 203.372 28.4358 193.795 35.3433 186.734C42.2508 179.673 51.6193 175.706 61.388 175.706H147.331C157.1 175.706 166.468 179.673 173.376 186.734C180.283 193.795 184.164 203.372 184.164 213.357V238.458C184.164 245.39 189.661 251.009 196.442 251.009C203.222 251.009 208.719 245.39 208.719 238.458V213.357C208.719 196.714 202.251 180.753 190.739 168.985C179.227 157.217 163.612 150.605 147.331 150.605H61.388Z" fill="#F1FAEE"/>
<path fill-rule="evenodd" clip-rule="evenodd" d="M184 101C184 80.5655 200.565 64 221 64C241.435 64 258 80.5655 258 101C258 121.435 241.435 138 221 138C200.565 138 184 121.435 184 101ZM223.065 78.1904C222.237 76.6032 220.058 76.6032 219.23 78.1904L214.012 88.1983C213.893 88.4271 213.738 88.63 213.557 88.8006L202.104 77.3472C207.283 73.2045 213.852 70.7273 221 70.7273C237.719 70.7273 251.273 84.2808 251.273 101C251.273 108.148 248.796 114.717 244.653 119.896L234.12 109.363L233.629 105.408C233.545 104.728 233.758 104.044 234.208 103.545L241.696 95.262C242.884 93.9482 242.21 91.7807 240.511 91.448L229.798 89.3497C229.153 89.2234 228.597 88.8007 228.283 88.1983L223.065 78.1904ZM205.887 90.6442L201.784 91.448C200.085 91.7807 199.411 93.9482 200.599 95.262L208.087 103.545C208.537 104.044 208.75 104.728 208.665 105.408L207.263 116.713C207.04 118.506 208.803 119.846 210.365 119.07L220.211 114.182C220.804 113.888 221.491 113.888 222.084 114.182L231.93 119.07C232.698 119.452 233.515 119.321 234.12 118.877L239.896 124.653C234.717 128.796 228.148 131.273 221 131.273C204.281 131.273 190.727 117.719 190.727 101C190.727 93.8522 193.204 87.283 197.347 82.1041L205.887 90.6442Z" fill="#F1FAEE"/>
</svg>
