<svg  viewBox="0 0 47 44" fill="none" xmlns="http://www.w3.org/2000/svg">
<path fill-rule="evenodd" clip-rule="evenodd" d="M8.46065 24.4404C10.0181 24.4404 11.2807 25.703 11.2807 27.2605V40.4206C11.2807 41.978 10.0181 43.2406 8.46065 43.2406C6.90319 43.2406 5.64062 41.978 5.64062 40.4206V27.2605C5.64062 25.703 6.90319 24.4404 8.46065 24.4404Z" fill="#A8DADC"/>
<path fill-rule="evenodd" clip-rule="evenodd" d="M8.46065 0C10.0181 0 11.2807 1.26257 11.2807 2.82003V15.9802C11.2807 17.5376 10.0181 18.8002 8.46065 18.8002C6.90319 18.8002 5.64062 17.5376 5.64062 15.9802V2.82003C5.64062 1.26257 6.90319 0 8.46065 0Z" fill="#A8DADC"/>
<path fill-rule="evenodd" clip-rule="evenodd" d="M23.5007 20.6802C25.0581 20.6802 26.3207 21.9427 26.3207 23.5002V40.4204C26.3207 41.9778 25.0581 43.2404 23.5007 43.2404C21.9432 43.2404 20.6807 41.9778 20.6807 40.4204V23.5002C20.6807 21.9427 21.9432 20.6802 23.5007 20.6802Z" fill="#A8DADC"/>
<path fill-rule="evenodd" clip-rule="evenodd" d="M23.5007 0C25.0581 0 26.3207 1.26257 26.3207 2.82003V12.2201C26.3207 13.7776 25.0581 15.0401 23.5007 15.0401C21.9432 15.0401 20.6807 13.7776 20.6807 12.2201V2.82003C20.6807 1.26257 21.9432 0 23.5007 0Z" fill="#A8DADC"/>
<path fill-rule="evenodd" clip-rule="evenodd" d="M38.5398 28.2002C40.0972 28.2002 41.3598 29.4628 41.3598 31.0202V40.4203C41.3598 41.9778 40.0972 43.2403 38.5398 43.2403C36.9823 43.2403 35.7197 41.9778 35.7197 40.4203V31.0202C35.7197 29.4628 36.9823 28.2002 38.5398 28.2002Z" fill="#A8DADC"/>
<path fill-rule="evenodd" clip-rule="evenodd" d="M38.5398 0C40.0972 0 41.3598 1.26257 41.3598 2.82003V19.7402C41.3598 21.2976 40.0972 22.5602 38.5398 22.5602C36.9823 22.5602 35.7197 21.2976 35.7197 19.7402V2.82003C35.7197 1.26257 36.9823 0 38.5398 0Z" fill="#A8DADC"/>
<path fill-rule="evenodd" clip-rule="evenodd" d="M0 27.2605C0 25.703 1.26257 24.4404 2.82003 24.4404H14.1001C15.6576 24.4404 16.9202 25.703 16.9202 27.2605C16.9202 28.8179 15.6576 30.0805 14.1001 30.0805H2.82003C1.26257 30.0805 0 28.8179 0 27.2605Z" fill="#A8DADC"/>
<path fill-rule="evenodd" clip-rule="evenodd" d="M15.04 12.2199C15.04 10.6625 16.3026 9.3999 17.8601 9.3999H29.1402C30.6976 9.3999 31.9602 10.6625 31.9602 12.2199C31.9602 13.7774 30.6976 15.04 29.1402 15.04H17.8601C16.3026 15.04 15.04 13.7774 15.04 12.2199Z" fill="#A8DADC"/>
<path fill-rule="evenodd" clip-rule="evenodd" d="M30.0801 31.0202C30.0801 29.4628 31.3426 28.2002 32.9001 28.2002H44.1802C45.7377 28.2002 47.0002 29.4628 47.0002 31.0202C47.0002 32.5777 45.7377 33.8403 44.1802 33.8403H32.9001C31.3426 33.8403 30.0801 32.5777 30.0801 31.0202Z" fill="#A8DADC"/>
</svg>
