<svg  viewBox="0 0 26 31" xmlns="http://www.w3.org/2000/svg">
<path fill-rule="evenodd" clip-rule="evenodd" d="M12.8886 3.1C10.3763 3.1 8.33967 5.18188 8.33967 7.75C8.33967 10.3181 10.3763 12.4 12.8886 12.4C15.4009 12.4 17.4375 10.3181 17.4375 7.75C17.4375 5.18188 15.4009 3.1 12.8886 3.1ZM5.30707 7.75C5.30707 3.46979 8.70143 0 12.8886 0C17.0757 0 20.4701 3.46979 20.4701 7.75C20.4701 12.0302 17.0757 15.5 12.8886 15.5C8.70143 15.5 5.30707 12.0302 5.30707 7.75ZM2.22058 20.8699C3.64239 19.4165 5.57078 18.6 7.58152 18.6H18.1957C20.2064 18.6 22.1348 19.4165 23.5566 20.8699C24.9784 22.3233 25.7772 24.2946 25.7772 26.35V29.45C25.7772 30.306 25.0983 31 24.2609 31C23.4234 31 22.7446 30.306 22.7446 29.45V26.35C22.7446 25.1167 22.2653 23.934 21.4122 23.062C20.5591 22.1899 19.4021 21.7 18.1957 21.7H7.58152C6.37508 21.7 5.21804 22.1899 4.36495 23.062C3.51187 23.934 3.03261 25.1167 3.03261 26.35V29.45C3.03261 30.306 2.35374 31 1.5163 31C0.678873 31 0 30.306 0 29.45V26.35C0 24.2946 0.798766 22.3233 2.22058 20.8699Z"/>
</svg>
