<svg viewBox="0 0 29 31" fill="none" xmlns="http://www.w3.org/2000/svg">
<path fill-rule="evenodd" clip-rule="evenodd" d="M5.63636 12.6818V8.45455C5.63636 6.21226 6.52711 4.06181 8.11264 2.47628C9.69818 0.890744 11.8486 0 14.0909 0C16.3332 0 18.4836 0.890744 20.0692 2.47628C21.6547 4.06181 22.5455 6.21226 22.5455 8.45455V12.6818H23.9545C26.2892 12.6818 28.1818 14.5744 28.1818 16.9091V26.7727C28.1818 29.1074 26.2892 31 23.9545 31H4.22727C1.89261 31 0 29.1074 0 26.7727V16.9091C0 14.5744 1.89261 12.6818 4.22727 12.6818H5.63636ZM10.1054 4.46903C11.1624 3.41201 12.5961 2.81818 14.0909 2.81818C15.5858 2.81818 17.0194 3.41201 18.0764 4.46903C19.1334 5.52606 19.7273 6.95969 19.7273 8.45455V12.6818H8.45455V8.45455C8.45455 6.95969 9.04837 5.52606 10.1054 4.46903ZM4.22727 15.5C3.44905 15.5 2.81818 16.1309 2.81818 16.9091V26.7727C2.81818 27.5509 3.44905 28.1818 4.22727 28.1818H23.9545C24.7328 28.1818 25.3636 27.5509 25.3636 26.7727V16.9091C25.3636 16.1309 24.7328 15.5 23.9545 15.5H4.22727Z" fill="#F1FAEE"/>
</svg>
