<svg  viewBox="0 0 20 20" fill="none" xmlns="http://www.w3.org/2000/svg">
<path d="M10.9066 0.562906C10.5152 -0.187636 9.4848 -0.187635 9.09345 0.562906L6.6258 5.29534C6.47728 5.58017 6.2142 5.78008 5.90931 5.83979L0.843487 6.83199C0.0400715 6.98935 -0.278336 8.0143 0.283209 8.63552L3.82394 12.5525C4.03704 12.7883 4.13753 13.1117 4.09761 13.4335L3.43441 18.7791C3.32923 19.6269 4.16284 20.2604 4.90125 19.8938L9.55719 17.5822C9.83741 17.443 10.1626 17.443 10.4428 17.5822L15.0988 19.8938C15.8372 20.2604 16.6708 19.6269 16.5656 18.7791L15.9024 13.4335C15.8625 13.1117 15.963 12.7883 16.1761 12.5525L19.7168 8.63552C20.2783 8.0143 19.9599 6.98935 19.1565 6.83199L14.0907 5.83979C13.7858 5.78008 13.5227 5.58017 13.3742 5.29534L10.9066 0.562906Z" fill="#FFD700"/>
</svg>
