<svg  viewBox="0 0 506 366" fill="none" xmlns="http://www.w3.org/2000/svg">
<path d="M241.556 113.747C238.248 113.747 236.448 111.898 236.156 108.201L231.924 54.4945C231.729 51.4784 232.508 48.9487 234.259 46.9056C236.108 44.8624 238.491 43.8408 241.41 43.8408C244.329 43.8408 246.713 44.8624 248.561 46.9056C250.41 48.9487 251.188 51.4784 250.896 54.4945L246.81 108.201C246.518 111.898 244.767 113.747 241.556 113.747ZM240.535 146C237.713 146 235.524 145.27 233.967 143.811C232.508 142.254 231.778 140.065 231.778 137.243V134.762C231.778 131.941 232.508 129.8 233.967 128.341C235.524 126.784 237.713 126.006 240.535 126.006H242.432C245.253 126.006 247.394 126.784 248.853 128.341C250.41 129.8 251.188 131.941 251.188 134.762V137.243C251.188 140.065 250.41 142.254 248.853 143.811C247.394 145.27 245.253 146 242.432 146H240.535Z" fill="#E63946"/>
<path d="M11.046 223.146H38.2548C39.6626 223.146 40.8267 223.606 41.7472 224.527C42.7219 225.393 43.2092 226.53 43.2092 227.938C43.2092 229.291 42.7219 230.401 41.7472 231.268C40.8267 232.08 39.6626 232.486 38.2548 232.486H15.5131L16.2441 231.105V246.943L15.5943 246.294H34.5999C36.0077 246.294 37.1718 246.754 38.0923 247.674C39.067 248.541 39.5543 249.678 39.5543 251.086C39.5543 252.439 39.067 253.549 38.0923 254.416C37.1718 255.228 36.0077 255.634 34.5999 255.634H15.838L16.2441 254.984V271.391L15.5943 270.66H38.2548C39.6626 270.66 40.8267 271.147 41.7472 272.122C42.7219 273.042 43.2092 274.125 43.2092 275.37C43.2092 276.724 42.7219 277.834 41.7472 278.7C40.8267 279.567 39.6626 280 38.2548 280H11.046C9.63815 280 8.44691 279.54 7.47227 278.619C6.55177 277.645 6.09152 276.453 6.09152 275.046V228.1C6.09152 226.692 6.55177 225.528 7.47227 224.608C8.44691 223.633 9.63815 223.146 11.046 223.146ZM66.541 280C65.0249 280 63.6712 279.54 62.48 278.619C61.2888 277.645 60.6932 276.453 60.6932 275.046V228.1C60.6932 226.692 61.1534 225.528 62.0739 224.608C63.0485 223.633 64.2398 223.146 65.6476 223.146H89.039C91.8547 223.146 94.4808 223.904 96.9174 225.42C99.4082 226.882 101.412 228.939 102.928 231.593C104.444 234.192 105.202 237.197 105.202 240.608C105.202 242.666 104.769 244.669 103.902 246.618C103.09 248.568 101.953 250.328 100.491 251.898C99.0833 253.468 97.486 254.686 95.6991 255.553L95.7803 253.685C97.2964 254.497 98.5418 255.471 99.5165 256.609C100.545 257.691 101.33 258.883 101.872 260.182C102.467 261.428 102.819 262.781 102.928 264.243C103.144 265.597 103.28 266.788 103.334 267.817C103.442 268.846 103.605 269.712 103.821 270.416C104.092 271.12 104.579 271.661 105.283 272.04C106.474 272.744 107.205 273.773 107.476 275.127C107.801 276.426 107.503 277.59 106.583 278.619C105.987 279.323 105.229 279.783 104.308 280C103.388 280.162 102.467 280.162 101.547 280C100.626 279.783 99.8684 279.513 99.2728 279.188C98.3523 278.646 97.4318 277.861 96.5113 276.832C95.5908 275.749 94.8328 274.315 94.2372 272.528C93.6957 270.741 93.4249 268.44 93.4249 265.624C93.4249 264.704 93.2625 263.864 92.9376 263.106C92.6127 262.294 92.1525 261.617 91.5569 261.076C90.9613 260.48 90.2032 260.047 89.2827 259.776C88.3622 259.451 87.2793 259.289 86.0339 259.289H69.6274L70.8457 257.421V275.046C70.8457 276.453 70.4667 277.645 69.7086 278.619C68.9506 279.54 67.8947 280 66.541 280ZM69.7086 250.923H88.6329C89.6076 250.923 90.5552 250.49 91.4757 249.624C92.3962 248.703 93.1542 247.485 93.7498 245.969C94.3454 244.398 94.6433 242.693 94.6433 240.852C94.6433 238.469 93.9935 236.493 92.694 234.923C91.4486 233.298 90.0949 232.486 88.6329 232.486H69.8711L70.8457 229.887V252.872L69.7086 250.923ZM130.423 280C128.907 280 127.553 279.54 126.362 278.619C125.17 277.645 124.575 276.453 124.575 275.046V228.1C124.575 226.692 125.035 225.528 125.956 224.608C126.93 223.633 128.121 223.146 129.529 223.146H152.921C155.736 223.146 158.363 223.904 160.799 225.42C163.29 226.882 165.293 228.939 166.809 231.593C168.326 234.192 169.084 237.197 169.084 240.608C169.084 242.666 168.65 244.669 167.784 246.618C166.972 248.568 165.835 250.328 164.373 251.898C162.965 253.468 161.368 254.686 159.581 255.553L159.662 253.685C161.178 254.497 162.424 255.471 163.398 256.609C164.427 257.691 165.212 258.883 165.754 260.182C166.349 261.428 166.701 262.781 166.809 264.243C167.026 265.597 167.161 266.788 167.216 267.817C167.324 268.846 167.486 269.712 167.703 270.416C167.974 271.12 168.461 271.661 169.165 272.04C170.356 272.744 171.087 273.773 171.358 275.127C171.683 276.426 171.385 277.59 170.464 278.619C169.869 279.323 169.111 279.783 168.19 280C167.27 280.162 166.349 280.162 165.429 280C164.508 279.783 163.75 279.513 163.155 279.188C162.234 278.646 161.314 277.861 160.393 276.832C159.473 275.749 158.714 274.315 158.119 272.528C157.577 270.741 157.307 268.44 157.307 265.624C157.307 264.704 157.144 263.864 156.819 263.106C156.494 262.294 156.034 261.617 155.439 261.076C154.843 260.48 154.085 260.047 153.164 259.776C152.244 259.451 151.161 259.289 149.916 259.289H133.509L134.727 257.421V275.046C134.727 276.453 134.348 277.645 133.59 278.619C132.832 279.54 131.776 280 130.423 280ZM133.59 250.923H152.515C153.489 250.923 154.437 250.49 155.357 249.624C156.278 248.703 157.036 247.485 157.632 245.969C158.227 244.398 158.525 242.693 158.525 240.852C158.525 238.469 157.875 236.493 156.576 234.923C155.33 233.298 153.977 232.486 152.515 232.486H133.753L134.727 229.887V252.872L133.59 250.923ZM239.969 251.573C239.969 255.634 239.292 259.424 237.939 262.944C236.585 266.463 234.663 269.577 232.172 272.284C229.735 274.937 226.812 277.022 223.4 278.538C220.043 280.054 216.361 280.812 212.354 280.812C208.347 280.812 204.665 280.054 201.308 278.538C197.951 277.022 195.027 274.937 192.537 272.284C190.1 269.577 188.205 266.463 186.851 262.944C185.497 259.424 184.821 255.634 184.821 251.573C184.821 247.512 185.497 243.722 186.851 240.202C188.205 236.682 190.1 233.596 192.537 230.943C195.027 228.236 197.951 226.124 201.308 224.608C204.665 223.092 208.347 222.334 212.354 222.334C216.361 222.334 220.043 223.092 223.4 224.608C226.812 226.124 229.735 228.236 232.172 230.943C234.663 233.596 236.585 236.682 237.939 240.202C239.292 243.722 239.969 247.512 239.969 251.573ZM229.411 251.573C229.411 247.945 228.68 244.669 227.218 241.745C225.756 238.767 223.752 236.412 221.207 234.679C218.662 232.946 215.711 232.08 212.354 232.08C208.997 232.08 206.046 232.946 203.501 234.679C200.956 236.412 198.953 238.74 197.491 241.664C196.083 244.588 195.379 247.891 195.379 251.573C195.379 255.201 196.083 258.504 197.491 261.482C198.953 264.406 200.956 266.734 203.501 268.467C206.046 270.199 208.997 271.066 212.354 271.066C215.711 271.066 218.662 270.199 221.207 268.467C223.752 266.734 225.756 264.406 227.218 261.482C228.68 258.504 229.411 255.201 229.411 251.573ZM263.262 280C261.746 280 260.393 279.54 259.201 278.619C258.01 277.645 257.414 276.453 257.414 275.046V228.1C257.414 226.692 257.875 225.528 258.795 224.608C259.77 223.633 260.961 223.146 262.369 223.146H285.76C288.576 223.146 291.202 223.904 293.639 225.42C296.13 226.882 298.133 228.939 299.649 231.593C301.165 234.192 301.923 237.197 301.923 240.608C301.923 242.666 301.49 244.669 300.624 246.618C299.812 248.568 298.674 250.328 297.212 251.898C295.805 253.468 294.207 254.686 292.42 255.553L292.502 253.685C294.018 254.497 295.263 255.471 296.238 256.609C297.267 257.691 298.052 258.883 298.593 260.182C299.189 261.428 299.541 262.781 299.649 264.243C299.866 265.597 300.001 266.788 300.055 267.817C300.163 268.846 300.326 269.712 300.542 270.416C300.813 271.12 301.301 271.661 302.004 272.04C303.196 272.744 303.927 273.773 304.197 275.127C304.522 276.426 304.224 277.59 303.304 278.619C302.708 279.323 301.95 279.783 301.03 280C300.109 280.162 299.189 280.162 298.268 280C297.348 279.783 296.59 279.513 295.994 279.188C295.074 278.646 294.153 277.861 293.233 276.832C292.312 275.749 291.554 274.315 290.958 272.528C290.417 270.741 290.146 268.44 290.146 265.624C290.146 264.704 289.984 263.864 289.659 263.106C289.334 262.294 288.874 261.617 288.278 261.076C287.683 260.48 286.925 260.047 286.004 259.776C285.084 259.451 284.001 259.289 282.755 259.289H266.349L267.567 257.421V275.046C267.567 276.453 267.188 277.645 266.43 278.619C265.672 279.54 264.616 280 263.262 280ZM266.43 250.923H285.354C286.329 250.923 287.276 250.49 288.197 249.624C289.117 248.703 289.876 247.485 290.471 245.969C291.067 244.398 291.365 242.693 291.365 240.852C291.365 238.469 290.715 236.493 289.415 234.923C288.17 233.298 286.816 232.486 285.354 232.486H266.592L267.567 229.887V252.872L266.43 250.923Z" fill="#F1FAEE"/>
<path d="M377.685 280C376.332 280 375.195 279.54 374.274 278.619C373.354 277.645 372.893 276.453 372.893 275.046V236.872L374.599 237.278L358.923 256.69L358.517 255.634H387.269C388.569 255.634 389.652 256.067 390.518 256.933C391.384 257.8 391.818 258.883 391.818 260.182C391.818 261.428 391.384 262.483 390.518 263.35C389.652 264.162 388.569 264.568 387.269 264.568H351.776C350.639 264.568 349.529 264.108 348.446 263.187C347.417 262.267 346.903 261.13 346.903 259.776C346.903 258.585 347.309 257.502 348.121 256.527L373.787 225.095C374.22 224.499 374.788 224.039 375.492 223.714C376.196 223.335 376.981 223.146 377.848 223.146C379.256 223.146 380.393 223.633 381.259 224.608C382.179 225.528 382.64 226.692 382.64 228.1V275.046C382.64 276.453 382.152 277.645 381.178 278.619C380.257 279.54 379.093 280 377.685 280ZM426.896 280.812C422.239 280.812 418.287 279.594 415.038 277.157C411.843 274.667 409.406 271.228 407.728 266.842C406.049 262.402 405.21 257.312 405.21 251.573C405.21 245.779 406.049 240.689 407.728 236.303C409.406 231.918 411.843 228.506 415.038 226.07C418.287 223.579 422.239 222.334 426.896 222.334C431.553 222.334 435.478 223.579 438.673 226.07C441.922 228.506 444.385 231.918 446.064 236.303C447.742 240.689 448.582 245.779 448.582 251.573C448.582 257.312 447.742 262.402 446.064 266.842C444.385 271.228 441.922 274.667 438.673 277.157C435.478 279.594 431.553 280.812 426.896 280.812ZM426.896 271.066C429.17 271.066 431.119 270.362 432.744 268.954C434.422 267.492 435.722 265.326 436.642 262.456C437.563 259.532 438.023 255.905 438.023 251.573C438.023 247.187 437.563 243.559 436.642 240.689C435.722 237.82 434.422 235.681 432.744 234.273C431.119 232.811 429.17 232.08 426.896 232.08C424.676 232.08 422.727 232.811 421.048 234.273C419.369 235.681 418.07 237.82 417.149 240.689C416.229 243.559 415.769 247.187 415.769 251.573C415.769 255.905 416.229 259.532 417.149 262.456C418.07 265.326 419.369 267.492 421.048 268.954C422.727 270.362 424.676 271.066 426.896 271.066ZM491.568 280C490.215 280 489.077 279.54 488.157 278.619C487.236 277.645 486.776 276.453 486.776 275.046V236.872L488.482 237.278L472.806 256.69L472.4 255.634H501.152C502.452 255.634 503.535 256.067 504.401 256.933C505.267 257.8 505.701 258.883 505.701 260.182C505.701 261.428 505.267 262.483 504.401 263.35C503.535 264.162 502.452 264.568 501.152 264.568H465.659C464.522 264.568 463.412 264.108 462.329 263.187C461.3 262.267 460.786 261.13 460.786 259.776C460.786 258.585 461.192 257.502 462.004 256.527L487.67 225.095C488.103 224.499 488.671 224.039 489.375 223.714C490.079 223.335 490.864 223.146 491.731 223.146C493.139 223.146 494.276 223.633 495.142 224.608C496.062 225.528 496.523 226.692 496.523 228.1V275.046C496.523 276.453 496.035 277.645 495.061 278.619C494.14 279.54 492.976 280 491.568 280Z" fill="#E63946"/>
<path d="M159.757 334.713C160.358 334.713 160.846 334.913 161.222 335.313C161.598 335.714 161.785 336.215 161.785 336.816V358.709C161.785 359.36 161.56 359.911 161.109 360.362C160.684 360.787 160.145 361 159.495 361C159.169 361 158.831 360.95 158.481 360.85C158.155 360.725 157.905 360.562 157.73 360.362L142.971 341.622L143.947 341.022V358.897C143.947 359.498 143.747 359.999 143.347 360.399C142.971 360.8 142.47 361 141.844 361C141.244 361 140.755 360.8 140.38 360.399C140.004 359.999 139.817 359.498 139.817 358.897V337.003C139.817 336.352 140.029 335.814 140.455 335.389C140.906 334.938 141.456 334.713 142.107 334.713C142.458 334.713 142.821 334.788 143.196 334.938C143.572 335.063 143.847 335.263 144.023 335.539L158.33 353.79L157.692 354.24V336.816C157.692 336.215 157.88 335.714 158.255 335.313C158.631 334.913 159.132 334.713 159.757 334.713ZM190.302 350.973C190.302 353.026 189.838 354.841 188.912 356.418C188.011 357.971 186.784 359.185 185.232 360.061C183.705 360.937 181.99 361.376 180.087 361.376C178.184 361.376 176.457 360.937 174.905 360.061C173.377 359.185 172.151 357.971 171.224 356.418C170.323 354.841 169.872 353.026 169.872 350.973C169.872 348.92 170.323 347.118 171.224 345.566C172.151 343.988 173.377 342.762 174.905 341.885C176.457 340.984 178.184 340.533 180.087 340.533C181.99 340.533 183.705 340.984 185.232 341.885C186.784 342.762 188.011 343.988 188.912 345.566C189.838 347.118 190.302 348.92 190.302 350.973ZM185.795 350.973C185.795 349.696 185.532 348.595 185.007 347.669C184.506 346.717 183.817 345.979 182.941 345.453C182.09 344.927 181.139 344.664 180.087 344.664C179.036 344.664 178.072 344.927 177.195 345.453C176.344 345.979 175.656 346.717 175.13 347.669C174.629 348.595 174.379 349.696 174.379 350.973C174.379 352.225 174.629 353.327 175.13 354.278C175.656 355.204 176.344 355.93 177.195 356.456C178.072 356.982 179.036 357.245 180.087 357.245C181.139 357.245 182.09 356.982 182.941 356.456C183.817 355.93 184.506 355.204 185.007 354.278C185.532 353.327 185.795 352.225 185.795 350.973ZM198.226 341.284H207.126C207.727 341.284 208.228 341.485 208.629 341.885C209.029 342.286 209.229 342.787 209.229 343.387C209.229 343.963 209.029 344.451 208.629 344.852C208.228 345.228 207.727 345.415 207.126 345.415H198.226C197.625 345.415 197.125 345.215 196.724 344.814C196.324 344.414 196.123 343.913 196.123 343.312C196.123 342.736 196.324 342.261 196.724 341.885C197.125 341.485 197.625 341.284 198.226 341.284ZM202.244 336.59C202.895 336.59 203.421 336.816 203.822 337.266C204.247 337.692 204.46 338.23 204.46 338.881V355.592C204.46 355.943 204.523 356.231 204.648 356.456C204.798 356.681 204.986 356.844 205.211 356.944C205.462 357.044 205.724 357.094 206 357.094C206.3 357.094 206.576 357.044 206.826 356.944C207.076 356.819 207.364 356.756 207.69 356.756C208.04 356.756 208.353 356.919 208.629 357.245C208.929 357.57 209.079 358.021 209.079 358.597C209.079 359.298 208.691 359.873 207.915 360.324C207.164 360.775 206.35 361 205.474 361C204.948 361 204.36 360.962 203.709 360.887C203.083 360.787 202.482 360.574 201.906 360.249C201.356 359.898 200.893 359.373 200.517 358.672C200.141 357.971 199.954 357.007 199.954 355.78V338.881C199.954 338.23 200.167 337.692 200.592 337.266C201.043 336.816 201.594 336.59 202.244 336.59ZM234.144 361C233.443 361 232.868 360.787 232.417 360.362C231.991 359.911 231.779 359.36 231.779 358.709V337.003C231.779 336.352 231.991 335.814 232.417 335.389C232.868 334.938 233.418 334.713 234.069 334.713H246.274C246.925 334.713 247.463 334.925 247.889 335.351C248.34 335.752 248.565 336.277 248.565 336.928C248.565 337.479 248.34 337.967 247.889 338.393C247.463 338.818 246.925 339.031 246.274 339.031H236.135L236.473 338.581V346.129L236.21 345.641H244.584C245.235 345.641 245.773 345.853 246.199 346.279C246.65 346.68 246.875 347.205 246.875 347.856C246.875 348.407 246.65 348.895 246.199 349.321C245.773 349.746 245.235 349.959 244.584 349.959H236.135L236.473 349.621V358.709C236.473 359.36 236.235 359.911 235.759 360.362C235.309 360.787 234.77 361 234.144 361ZM275.186 350.973C275.186 353.026 274.722 354.841 273.796 356.418C272.895 357.971 271.668 359.185 270.116 360.061C268.589 360.937 266.874 361.376 264.971 361.376C263.068 361.376 261.341 360.937 259.789 360.061C258.262 359.185 257.035 357.971 256.108 356.418C255.207 354.841 254.757 353.026 254.757 350.973C254.757 348.92 255.207 347.118 256.108 345.566C257.035 343.988 258.262 342.762 259.789 341.885C261.341 340.984 263.068 340.533 264.971 340.533C266.874 340.533 268.589 340.984 270.116 341.885C271.668 342.762 272.895 343.988 273.796 345.566C274.722 347.118 275.186 348.92 275.186 350.973ZM270.679 350.973C270.679 349.696 270.416 348.595 269.891 347.669C269.39 346.717 268.701 345.979 267.825 345.453C266.974 344.927 266.023 344.664 264.971 344.664C263.92 344.664 262.956 344.927 262.079 345.453C261.228 345.979 260.54 346.717 260.014 347.669C259.513 348.595 259.263 349.696 259.263 350.973C259.263 352.225 259.513 353.327 260.014 354.278C260.54 355.204 261.228 355.93 262.079 356.456C262.956 356.982 263.92 357.245 264.971 357.245C266.023 357.245 266.974 356.982 267.825 356.456C268.701 355.93 269.39 355.204 269.891 354.278C270.416 353.327 270.679 352.225 270.679 350.973ZM297.794 340.909C298.445 340.909 298.983 341.134 299.409 341.585C299.834 342.01 300.047 342.549 300.047 343.2V352.738C300.047 355.392 299.308 357.495 297.831 359.047C296.354 360.599 294.226 361.376 291.447 361.376C288.668 361.376 286.54 360.599 285.063 359.047C283.611 357.495 282.885 355.392 282.885 352.738V343.2C282.885 342.549 283.098 342.01 283.523 341.585C283.949 341.134 284.487 340.909 285.138 340.909C285.789 340.909 286.327 341.134 286.753 341.585C287.179 342.01 287.391 342.549 287.391 343.2V352.738C287.391 354.265 287.729 355.405 288.405 356.156C289.081 356.882 290.095 357.245 291.447 357.245C292.824 357.245 293.851 356.882 294.527 356.156C295.203 355.405 295.541 354.265 295.541 352.738V343.2C295.541 342.549 295.753 342.01 296.179 341.585C296.605 341.134 297.143 340.909 297.794 340.909ZM319.421 340.533C321.274 340.533 322.676 340.921 323.627 341.698C324.604 342.474 325.267 343.513 325.618 344.814C325.993 346.091 326.181 347.518 326.181 349.096V358.709C326.181 359.36 325.968 359.911 325.543 360.362C325.117 360.787 324.579 361 323.928 361C323.277 361 322.739 360.787 322.313 360.362C321.887 359.911 321.675 359.36 321.675 358.709V349.096C321.675 348.269 321.562 347.531 321.337 346.88C321.136 346.204 320.761 345.666 320.21 345.265C319.659 344.865 318.871 344.664 317.844 344.664C316.843 344.664 315.991 344.865 315.29 345.265C314.614 345.666 314.089 346.204 313.713 346.88C313.363 347.531 313.187 348.269 313.187 349.096V358.709C313.187 359.36 312.975 359.911 312.549 360.362C312.123 360.787 311.585 361 310.934 361C310.283 361 309.745 360.787 309.319 360.362C308.894 359.911 308.681 359.36 308.681 358.709V343.2C308.681 342.549 308.894 342.01 309.319 341.585C309.745 341.134 310.283 340.909 310.934 340.909C311.585 340.909 312.123 341.134 312.549 341.585C312.975 342.01 313.187 342.549 313.187 343.2V344.814L312.624 344.702C312.849 344.276 313.175 343.826 313.601 343.35C314.026 342.849 314.527 342.386 315.103 341.96C315.678 341.535 316.329 341.197 317.055 340.946C317.781 340.671 318.57 340.533 319.421 340.533ZM351.256 333.21C351.906 333.21 352.445 333.423 352.87 333.849C353.296 334.274 353.509 334.825 353.509 335.501V358.709C353.509 359.36 353.296 359.911 352.87 360.362C352.445 360.787 351.906 361 351.256 361C350.605 361 350.066 360.787 349.641 360.362C349.215 359.911 349.002 359.36 349.002 358.709V356.869L349.828 357.207C349.828 357.533 349.653 357.933 349.303 358.409C348.952 358.859 348.477 359.31 347.876 359.761C347.275 360.211 346.561 360.599 345.735 360.925C344.934 361.225 344.058 361.376 343.106 361.376C341.379 361.376 339.814 360.937 338.412 360.061C337.01 359.16 335.896 357.933 335.07 356.381C334.269 354.804 333.868 353.001 333.868 350.973C333.868 348.92 334.269 347.118 335.07 345.566C335.896 343.988 336.998 342.762 338.375 341.885C339.752 340.984 341.279 340.533 342.956 340.533C344.033 340.533 345.022 340.696 345.923 341.022C346.824 341.347 347.6 341.76 348.251 342.261C348.927 342.762 349.44 343.275 349.791 343.801C350.166 344.301 350.354 344.727 350.354 345.077L349.002 345.566V335.501C349.002 334.85 349.215 334.312 349.641 333.886C350.066 333.436 350.605 333.21 351.256 333.21ZM343.67 357.245C344.771 357.245 345.735 356.969 346.561 356.418C347.387 355.868 348.026 355.117 348.477 354.165C348.952 353.214 349.19 352.15 349.19 350.973C349.19 349.772 348.952 348.695 348.477 347.744C348.026 346.792 347.387 346.041 346.561 345.49C345.735 344.94 344.771 344.664 343.67 344.664C342.593 344.664 341.642 344.94 340.816 345.49C339.989 346.041 339.339 346.792 338.863 347.744C338.412 348.695 338.187 349.772 338.187 350.973C338.187 352.15 338.412 353.214 338.863 354.165C339.339 355.117 339.989 355.868 340.816 356.418C341.642 356.969 342.593 357.245 343.67 357.245Z" fill="#F1FAEE"/>
</svg>